# xmcd
#
# Track frame offsets:
# 150
# 22230
# 44560
# 59900
# 76820
# 88790
# 97675
# 116665
# 127370
# 148105
# 159960
# 174900
# 185060
# 194790
# 208165
# 225410
# 239410
# 258130
# 274470
# 295370
# 310410
# 329230
# 343290
#
# Disc length: 4743 seconds
#
#
# Revision: 0
# Processed by: cddbd v1.4PL0 Copyright (c) Steve Scherf et al.
# Submitted via: FreeRIP 2.35 
#
DISCID=76128517
DTITLE=Don Millard - Homemade Blues
DYEAR=2002
DGENRE=Blues
TTITLE0=Forgive Me Baby
TTITLE1=Things I Used To Do
TTITLE2=Lie To Me
TTITLE3=That's Alright
TTITLE4=Slide Jam 1
TTITLE5=Extra Cheese
TTITLE6=Blues With A Feeling
TTITLE7=One Track Mind
TTITLE8=Goin' Back To Seattle
TTITLE9=Slide Jam 2
TTITLE10=Country Blues
TTITLE11=Harp Jam
TTITLE12=Port Town Blues
TTITLE13=Back At The Ranch
TTITLE14=Last Night
TTITLE15=Gold Tailed Bird
TTITLE16=Blues Jumped Up
TTITLE17=Home Ain't Here
TTITLE18=Forgive Me Baby-2
TTITLE19=Don't Throw Your Love
TTITLE20=Last Night
TTITLE21=Ain't No Future
TTITLE22=Blue Shadows Falling
EXTD=Spokane, Washington - Home Boy
EXTT0=
EXTT1=
EXTT2=
EXTT3=Chicago
EXTT4=
EXTT5=
EXTT6=
EXTT7=
EXTT8=
EXTT9=
EXTT10=
EXTT11=
EXTT12=
EXTT13=
EXTT14=Chromatic
EXTT15=Chicago
EXTT16=
EXTT17=
EXTT18=
EXTT19=
EXTT20=
EXTT21=
EXTT22=
PLAYORDER=
